<?xml version="1.0" encoding="utf-8"?>
<!-- Generator: Adobe Illustrator 25.1.0, SVG Export Plug-In . SVG Version: 6.00 Build 0)  -->
<svg version="1.1" id="Layer_1" xmlns="http://www.w3.org/2000/svg" xmlns:xlink="http://www.w3.org/1999/xlink" x="0px" y="0px"
	 viewBox="0 0 56 21.4" style="enable-background:new 0 0 56 21.4;" xml:space="preserve">
<style type="text/css">
	.st0{fill:url(#SVGID_1_);stroke:#523A21;stroke-width:0.75;stroke-miterlimit:10;}
	.st1{fill:#454027;stroke:#07733B;stroke-width:0.75;stroke-miterlimit:10;}
	.st2{fill:#09743B;stroke:#523A21;stroke-width:0.75;stroke-miterlimit:10;}
	.st3{font-family:'MyriadPro-Regular';}
	.st4{font-size:12px;}
	.st5{fill:#5F4729;stroke:#3D8C41;stroke-width:0.5;stroke-miterlimit:10;}
</style>
<linearGradient id="SVGID_1_" gradientUnits="userSpaceOnUse" x1="2.3441" y1="18.0903" x2="2.3441" y2="18.0903">
	<stop  offset="0" style="stop-color:#FFFFFF"/>
	<stop  offset="1" style="stop-color:#000000"/>
</linearGradient>
<path class="st0" d="M2.3,18.1"/>
<path class="st1" d="M4.1,14.8c-0.1-0.2-0.3-0.4-0.5-0.6C3.4,14,3.2,13.9,3,13.9c-0.3,0-0.5,0.3-0.6,0.6c-0.2,0.6,0.7,1.4,0.9,1.6
	c0.4,0.3,0.7,0.5,0.9,0.6c0.5-0.5,1.6-1.7,1.3-2.2c-0.1-0.2-0.6-0.4-0.9-0.2C4.2,14.4,4.1,14.7,4.1,14.8L4,15.3"/>
<path class="st1" d="M46.3,6.9l-0.5-0.6l-0.7-0.2l-0.4,0.2l-0.2,0.4v0.4l0.2,0.3L45,7.6L45.4,8l0.4,0.3l0.3,0.2l0.3,0.2L47,8.1
	l0.3-0.4l0.4-0.6L48,6.5l-0.2-0.4L47.4,6H47l-0.4,0.3c-0.1,0.1-0.3,0.3-0.4,0.4"/>
<text transform="matrix(1 0 0 1 8.1744 18.3056)" class="st2 st3 st4">jonsson</text>
<text transform="matrix(1 0 0 1 9.644 10.2059)" class="st5 st3 st4">caitlyn</text>
</svg>
