<svg id="Layer_1" data-name="Layer 1" xmlns="http://www.w3.org/2000/svg" xmlns:xlink="http://www.w3.org/1999/xlink" viewBox="0 0 44.11 25.53"><defs><style>.cls-1{fill:#6100a2;stroke:#6100a2;}.cls-1,.cls-3,.cls-4,.cls-6{stroke-miterlimit:10;}.cls-2{fill:#b473ff;}.cls-3,.cls-4,.cls-6{stroke:#523a21;}.cls-3{stroke-width:0.75px;fill:url(#linear-gradient);}.cls-4,.cls-7{fill:#523a21;}.cls-4,.cls-6{stroke-width:0.25px;}.cls-5{fill:#00a335;}.cls-6{fill:none;}</style><linearGradient id="linear-gradient" x1="4.68" y1="18.21" x2="4.68" y2="18.21" gradientUnits="userSpaceOnUse"><stop offset="0" stop-color="#fff"/><stop offset="1"/></linearGradient></defs><path class="cls-1" d="M49.4,8.41C44.45,1.16,33.36.87,25.12,1.2,17.06.65,7,2.82,7.83,11.8c1,10.58,15.22,8.57,23.44,7.84A109.74,109.74,0,0,0,46,17.11C50.58,16.07,51.81,11.94,49.4,8.41ZM24,11.59c-1.59,0-3.18,0-4.78,0-.74,0-1.49,0-2.23-.07a2.27,2.27,0,0,0-.23-.64c.85-1.48,3.37-1.74,5.79-1.6a4.79,4.79,0,0,0,2.08.35l.74,0c.64.1,1.2.21,1.62.3a4.75,4.75,0,0,0,3.31-.43,20.91,20.91,0,0,1,4,.41c.91.18,1.81.34,2.69.56A83.7,83.7,0,0,1,24,11.59Z" transform="translate(-7 4.75)"/><path class="cls-2" d="M46.4,6.7c-2.59-3-6.37-3.49-9.35-4.14a45.73,45.73,0,0,0-22.93.57,8.23,8.23,0,0,0-4.19,3A10.21,10.21,0,0,0,8.17,8.91c-4.53,10.9,4.9,11.44,13.88,10.61,5.14-.46,10.25-.9,15.28-1.47,3.54-.4,8.16-.51,10.33-3.09C49.49,12.6,48.74,9.16,46.4,6.7Z" transform="translate(-7 4.75)"/><path class="cls-3" d="M4.68,18.21" transform="translate(-7 4.75)"/><text x="-7" y="4.75"/><text x="-7" y="4.75"/><path class="cls-4" d="M11.55,14a2,2,0,0,0-.5-.56.89.89,0,0,0-.6-.29.75.75,0,0,0-.58.57c-.16.6.64,1.28.89,1.49a3.21,3.21,0,0,0,.92.54c.47-.48,1.52-1.63,1.26-2.12a.76.76,0,0,0-.92-.19,1,1,0,0,0-.47.56l-.14.45" transform="translate(-7 4.75)"/><path class="cls-5" d="M12.76,17.63a3.3,3.3,0,0,0,1.38.66c.34,0,.48-.29.5-1.38l.09-3.79.88.21.17,4.61c0,1-.15,1.47-.76,1.47a5.67,5.67,0,0,1-2.21-1.15Zm2.89-5.72a.43.43,0,0,1-.5.5.57.57,0,0,1-.49-.58.49.49,0,0,1,.5-.5C15.44,11.33,15.63,11.58,15.65,11.91Z" transform="translate(-7 4.75)"/><path class="cls-6" d="M12.76,17.63a3.3,3.3,0,0,0,1.38.66c.34,0,.48-.29.5-1.38l.09-3.79.88.21.17,4.61c0,1-.15,1.47-.76,1.47a5.67,5.67,0,0,1-2.21-1.15Zm2.89-5.72a.43.43,0,0,1-.5.5.57.57,0,0,1-.49-.58.49.49,0,0,1,.5-.5C15.44,11.33,15.63,11.58,15.65,11.91Z" transform="translate(-7 4.75)"/><path class="cls-5" d="M21.29,15.29C21.19,17,20,17.18,18.84,16.6s-2-1.77-1.72-2.75a2,2,0,0,1,2.44-1.32C20.67,12.73,21.36,13.85,21.29,15.29ZM17.9,14.11a1.8,1.8,0,0,0,1.06,2c.79.37,1.45-.06,1.53-1.06.07-.74-.18-1.77-1-2A1.28,1.28,0,0,0,17.9,14.11Z" transform="translate(-7 4.75)"/><path class="cls-6" d="M21.29,15.29C21.19,17,20,17.18,18.84,16.6s-2-1.77-1.72-2.75a2,2,0,0,1,2.44-1.32C20.67,12.73,21.36,13.85,21.29,15.29ZM17.9,14.11a1.8,1.8,0,0,0,1.06,2c.79.37,1.45-.06,1.53-1.06.07-.74-.18-1.77-1-2A1.28,1.28,0,0,0,17.9,14.11Z" transform="translate(-7 4.75)"/><path class="cls-5" d="M22.93,14.16c0-.35,0-.63-.05-.91l.51-.07.08.53h0a1.24,1.24,0,0,1,1-.72,1.41,1.41,0,0,1,1.53.88l.57,1.43-.76.28-.45-1.49a.82.82,0,0,0-1-.64.92.92,0,0,0-.75.72.84.84,0,0,0,0,.28l.17,1.9-.76.29Z" transform="translate(-7 4.75)"/><path class="cls-6" d="M22.93,14.16c0-.35,0-.63-.05-.91l.51-.07.08.53h0a1.24,1.24,0,0,1,1-.72,1.41,1.41,0,0,1,1.53.88l.57,1.43-.76.28-.45-1.49a.82.82,0,0,0-1-.64.92.92,0,0,0-.75.72.84.84,0,0,0,0,.28l.17,1.9-.76.29Z" transform="translate(-7 4.75)"/><path class="cls-5" d="M27.85,14.91a7.22,7.22,0,0,0,.88.75c.47.32.71.24.73-.05s-.17-.55-.68-.89c-.69-.39-1-.67-1-.91s.52-.66,1.44-.81a1.86,1.86,0,0,1,1,.09l-.23.53a1.41,1.41,0,0,0-.83-.18c-.45,0-.7.19-.7.38s.24.35.75.6a1.54,1.54,0,0,1,.93,1.47c-.06.73-.58.84-1.42.14a11.82,11.82,0,0,1-1-1Z" transform="translate(-7 4.75)"/><path class="cls-6" d="M27.85,14.91a7.22,7.22,0,0,0,.88.75c.47.32.71.24.73-.05s-.17-.55-.68-.89c-.69-.39-1-.67-1-.91s.52-.66,1.44-.81a1.86,1.86,0,0,1,1,.09l-.23.53a1.41,1.41,0,0,0-.83-.18c-.45,0-.7.19-.7.38s.24.35.75.6a1.54,1.54,0,0,1,.93,1.47c-.06.73-.58.84-1.42.14a11.82,11.82,0,0,1-1-1Z" transform="translate(-7 4.75)"/><path class="cls-5" d="M31.29,15.43a2,2,0,0,0,.84.34c.49.07.75-.14.79-.44s-.12-.49-.56-.67c-.6-.19-.82-.47-.73-.82A1.86,1.86,0,0,1,33,12.67a1.1,1.1,0,0,1,.77,0l-.21.54a.9.9,0,0,0-.64-.08.8.8,0,0,0-.64.55c0,.27.13.37.55.5a1,1,0,0,1,.79,1.12c-.07.69-.64,1.07-1.54.9a2.88,2.88,0,0,1-1-.39Z" transform="translate(-7 4.75)"/><path class="cls-6" d="M31.29,15.43a2,2,0,0,0,.84.34c.49.07.75-.14.79-.44s-.12-.49-.56-.67c-.6-.19-.82-.47-.73-.82A1.86,1.86,0,0,1,33,12.67a1.1,1.1,0,0,1,.77,0l-.21.54a.9.9,0,0,0-.64-.08.8.8,0,0,0-.64.55c0,.27.13.37.55.5a1,1,0,0,1,.79,1.12c-.07.69-.64,1.07-1.54.9a2.88,2.88,0,0,1-1-.39Z" transform="translate(-7 4.75)"/><path class="cls-5" d="M38.45,13.8a4.63,4.63,0,0,1-1.87,2c-.81.5-1.37.1-1.25-1.14s.92-2.07,1.86-2S38.67,13.15,38.45,13.8Zm-2.54.7c-.09.79.23,1.19.77.9A2.54,2.54,0,0,0,37.85,14a.66.66,0,0,0-.75-.9C36.39,13.09,36,13.82,35.91,14.5Z" transform="translate(-7 4.75)"/><path class="cls-6" d="M38.45,13.8a4.63,4.63,0,0,1-1.87,2c-.81.5-1.37.1-1.25-1.14s.92-2.07,1.86-2S38.67,13.15,38.45,13.8Zm-2.54.7c-.09.79.23,1.19.77.9A2.54,2.54,0,0,0,37.85,14a.66.66,0,0,0-.75-.9C36.39,13.09,36,13.82,35.91,14.5Z" transform="translate(-7 4.75)"/><path class="cls-5" d="M39.67,13.35c0-.36.06-.65.07-.94l.42,0,0,.56h0a1,1,0,0,1,.9-.6c.36,0,.92.28,1,1.33l0,1.82-.57.07V13.8c0-.5-.16-.93-.61-.93a.8.8,0,0,0-.69.62,1.15,1.15,0,0,0-.06.28l-.16,2-.56.07Z" transform="translate(-7 4.75)"/><path class="cls-6" d="M39.67,13.35c0-.36.06-.65.07-.94l.42,0,0,.56h0a1,1,0,0,1,.9-.6c.36,0,.92.28,1,1.33l0,1.82-.57.07V13.8c0-.5-.16-.93-.61-.93a.8.8,0,0,0-.69.62,1.15,1.15,0,0,0-.06.28l-.16,2-.56.07Z" transform="translate(-7 4.75)"/><path class="cls-5" d="M18.3,9a6.07,6.07,0,0,1-1.65.64c-1.73.43-2.57-.25-2.13-1.66a4.07,4.07,0,0,1,2.83-2.87,2.18,2.18,0,0,1,1,0l-.18.62a1.7,1.7,0,0,0-.87,0,2.65,2.65,0,0,0-1.87,2c-.25,1,.41,1.49,1.5,1.23a4,4,0,0,0,1.23-.5Z" transform="translate(-7 4.75)"/><path class="cls-6" d="M18.3,9a6.07,6.07,0,0,1-1.65.64c-1.73.43-2.57-.25-2.13-1.66a4.07,4.07,0,0,1,2.83-2.87,2.18,2.18,0,0,1,1,0l-.18.62a1.7,1.7,0,0,0-.87,0,2.65,2.65,0,0,0-1.87,2c-.25,1,.41,1.49,1.5,1.23a4,4,0,0,0,1.23-.5Z" transform="translate(-7 4.75)"/><path class="cls-5" d="M22.49,9.58,22.43,9h0a2.06,2.06,0,0,1-1.81.17C19.4,8.84,19,8.27,19.19,7.84c.32-.7,1.49-1.1,3.26-1.1V6.65c0-.36,0-1-.88-.87a3.89,3.89,0,0,0-1.16.4l0-.35a5,5,0,0,1,1.38-.59c1.18-.3,1.49.64,1.52,1.6l0,1.81a6.12,6.12,0,0,0,.12,1.18Zm0-2.29c-1-.07-2.08,0-2.27.64-.12.4.26.68.78.8a1.19,1.19,0,0,0,1.39-.43.65.65,0,0,0,.06-.24Z" transform="translate(-7 4.75)"/><path class="cls-6" d="M22.49,9.58,22.43,9h0a2.06,2.06,0,0,1-1.81.17C19.4,8.84,19,8.27,19.19,7.84c.32-.7,1.49-1.1,3.26-1.1V6.65c0-.36,0-1-.88-.87a3.89,3.89,0,0,0-1.16.4l0-.35a5,5,0,0,1,1.38-.59c1.18-.3,1.49.64,1.52,1.6l0,1.81a6.12,6.12,0,0,0,.12,1.18Zm0-2.29c-1-.07-2.08,0-2.27.64-.12.4.26.68.78.8a1.19,1.19,0,0,0,1.39-.43.65.65,0,0,0,.06-.24Z" transform="translate(-7 4.75)"/><path class="cls-5" d="M25.47,3.75a.9.9,0,0,1-.63.8c-.36.15-.64,0-.67-.27a.87.87,0,0,1,.62-.8C25.21,3.31,25.47,3.44,25.47,3.75ZM25,10.15l-.51-4.62.94-.37L25.45,10Z" transform="translate(-7 4.75)"/><path class="cls-6" d="M25.47,3.75a.9.9,0,0,1-.63.8c-.36.15-.64,0-.67-.27a.87.87,0,0,1,.62-.8C25.21,3.31,25.47,3.44,25.47,3.75ZM25,10.15l-.51-4.62.94-.37L25.45,10Z" transform="translate(-7 4.75)"/><path class="cls-5" d="M28.88,4.86l-.23.94,1.54-.31-.12.61-1.53.17-.36,2c-.08.49.06.81.55.92a1.94,1.94,0,0,0,.54.05l-.11.61a2.08,2.08,0,0,1-.77-.08,1.44,1.44,0,0,1-1.13-1.63l.21-1.79-.94.06,0-.33,1-.12.12-.62Z" transform="translate(-7 4.75)"/><path class="cls-6" d="M28.88,4.86l-.23.94,1.54-.31-.12.61-1.53.17-.36,2c-.08.49.06.81.55.92a1.94,1.94,0,0,0,.54.05l-.11.61a2.08,2.08,0,0,1-.77-.08,1.44,1.44,0,0,1-1.13-1.63l.21-1.79-.94.06,0-.33,1-.12.12-.62Z" transform="translate(-7 4.75)"/><path class="cls-5" d="M30.67,4.19l.87.14L31.45,10,31,10Z" transform="translate(-7 4.75)"/><path class="cls-6" d="M30.67,4.19l.87.14L31.45,10,31,10Z" transform="translate(-7 4.75)"/><path class="cls-5" d="M33.77,4.53l.8,2.56c.09.29.2.64.27.9h0c.08-.25.17-.57.28-.87l.74-2.48.74,0-1,3a5,5,0,0,1-1.59,2.54,2.43,2.43,0,0,1-1.12.4L32.78,10a2.3,2.3,0,0,0,.79-.3,2.15,2.15,0,0,0,.74-.8.67.67,0,0,0,.08-.18.65.65,0,0,0-.06-.2L33,4.49Z" transform="translate(-7 4.75)"/><path class="cls-6" d="M33.77,4.53l.8,2.56c.09.29.2.64.27.9h0c.08-.25.17-.57.28-.87l.74-2.48.74,0-1,3a5,5,0,0,1-1.59,2.54,2.43,2.43,0,0,1-1.12.4L32.78,10a2.3,2.3,0,0,0,.79-.3,2.15,2.15,0,0,0,.74-.8.67.67,0,0,0,.08-.18.65.65,0,0,0-.06-.2L33,4.49Z" transform="translate(-7 4.75)"/><path class="cls-5" d="M37.07,7.21c0-.44-.08-.8-.14-1.14L37.77,6l.06.69h0a2.22,2.22,0,0,1,1.75-.9c.73,0,1.76.18,1.31,1.49l-.78,2.27-.59.16.54-2.25c.15-.62,0-1.12-.87-1A1.44,1.44,0,0,0,38,7.28a1.3,1.3,0,0,0,0,.36v2.49l-.6.16Z" transform="translate(-7 4.75)"/><path class="cls-6" d="M37.07,7.21c0-.44-.08-.8-.14-1.14L37.77,6l.06.69h0a2.22,2.22,0,0,1,1.75-.9c.73,0,1.76.18,1.31,1.49l-.78,2.27-.59.16.54-2.25c.15-.62,0-1.12-.87-1A1.44,1.44,0,0,0,38,7.28a1.3,1.3,0,0,0,0,.36v2.49l-.6.16Z" transform="translate(-7 4.75)"/><path class="cls-7" d="M44.28,7.41a1.75,1.75,0,0,0-.45-.6c-.2-.18-.37-.33-.6-.31a.85.85,0,0,0-.61.66c-.19.71.56,1.42.79,1.63a2.17,2.17,0,0,0,.82.46c.5-.57,1.69-1.8,1.5-2.26-.09-.23-.53-.35-.91-.19a1.25,1.25,0,0,0-.54.61l-.17.49" transform="translate(-7 4.75)"/><path class="cls-6" d="M44.28,7.41a1.75,1.75,0,0,0-.45-.6c-.2-.18-.37-.33-.6-.31a.85.85,0,0,0-.61.66c-.19.71.56,1.42.79,1.63a2.17,2.17,0,0,0,.82.46c.5-.57,1.69-1.8,1.5-2.26-.09-.23-.53-.35-.91-.19a1.25,1.25,0,0,0-.54.61l-.17.49" transform="translate(-7 4.75)"/></svg>