<svg id="Layer_1" data-name="Layer 1" xmlns="http://www.w3.org/2000/svg" xmlns:xlink="http://www.w3.org/1999/xlink" viewBox="0 0 44.23 26.9"><defs><style>.cls-1,.cls-5{stroke:#523a21;}.cls-1,.cls-3,.cls-5,.cls-7{stroke-miterlimit:10;}.cls-1{stroke-width:0.75px;fill:url(#linear-gradient);}.cls-2{fill:#b473ff;}.cls-3{fill:#454027;stroke:#07733b;}.cls-3,.cls-5,.cls-7{stroke-width:0.25px;}.cls-4{fill:#09743b;}.cls-5,.cls-7{fill:none;}.cls-6{fill:#5f4729;}.cls-7{stroke:#3d8c41;}</style><linearGradient id="linear-gradient" x1="2.34" y1="18.09" x2="2.34" y2="18.09" gradientUnits="userSpaceOnUse"><stop offset="0" stop-color="#fff"/><stop offset="1"/></linearGradient></defs><path class="cls-1" d="M2.34,18.09" transform="translate(-5.22 6.2)"/><text x="-5.22" y="6.2"/><text x="-5.22" y="6.2"/><path class="cls-2" d="M47,6.29c-2.74-3.35-6.76-3.84-9.92-4.56a46.78,46.78,0,0,0-24.33.63A8.63,8.63,0,0,0,8.34,5.68a11,11,0,0,0-1.87,3c-4.81,12,5.2,12.6,14.73,11.68,5.45-.51,10.87-1,16.21-1.62,3.75-.44,8.65-.56,11-3.4C50.31,12.79,49.51,9,47,6.29Z" transform="translate(-5.22 6.2)"/><path class="cls-3" d="M10,13.52a2.1,2.1,0,0,0-.51-.6c-.22-.18-.4-.32-.62-.3a.79.79,0,0,0-.59.6c-.17.64.65,1.36.91,1.58a3.18,3.18,0,0,0,.95.57c.48-.51,1.57-1.72,1.3-2.24a.77.77,0,0,0-1-.21,1.07,1.07,0,0,0-.49.6L9.9,14" transform="translate(-5.22 6.2)"/><path class="cls-3" d="M43.22,6.49l-.52-.65-.65-.17-.42.17-.23.41V6.7l.23.31.26.17.42.34.39.28L43,8l.26.2.72-.55.29-.41.42-.55L44.88,6l-.23-.37-.32-.14h-.39l-.39.34-.41.38" transform="translate(-5.22 6.2)"/><path class="cls-4" d="M11.28,17.41a3.46,3.46,0,0,0,1.42.7c.36,0,.49-.31.52-1.46l.09-4,.91.23.17,4.87c0,1.05-.16,1.57-.78,1.57a5.79,5.79,0,0,1-2.27-1.22Zm3-6.05c0,.33-.17.58-.51.52a.58.58,0,0,1-.51-.6.52.52,0,0,1,.52-.54C14,10.74,14.24,11,14.26,11.36Z" transform="translate(-5.22 6.2)"/><path class="cls-5" d="M11.28,17.41a3.46,3.46,0,0,0,1.42.7c.36,0,.49-.31.52-1.46l.09-4,.91.23.17,4.87c0,1.05-.16,1.57-.78,1.57a5.79,5.79,0,0,1-2.27-1.22Zm3-6.05c0,.33-.17.58-.51.52a.58.58,0,0,1-.51-.6.52.52,0,0,1,.52-.54C14,10.74,14.24,11,14.26,11.36Z" transform="translate(-5.22 6.2)"/><path class="cls-4" d="M20.06,14.94c-.09,1.84-1.36,2-2.52,1.38s-2.1-1.87-1.77-2.91A2.1,2.1,0,0,1,18.28,12C19.42,12.23,20.14,13.41,20.06,14.94Zm-3.48-1.25a1.91,1.91,0,0,0,1.08,2.09c.82.4,1.49-.07,1.58-1.12.07-.79-.19-1.87-1.06-2.08A1.32,1.32,0,0,0,16.58,13.69Z" transform="translate(-5.22 6.2)"/><path class="cls-5" d="M20.06,14.94c-.09,1.84-1.36,2-2.52,1.38s-2.1-1.87-1.77-2.91A2.1,2.1,0,0,1,18.28,12C19.42,12.23,20.14,13.41,20.06,14.94Zm-3.48-1.25a1.91,1.91,0,0,0,1.08,2.09c.82.4,1.49-.07,1.58-1.12.07-.79-.19-1.87-1.06-2.08A1.32,1.32,0,0,0,16.58,13.69Z" transform="translate(-5.22 6.2)"/><path class="cls-4" d="M21.76,13.74c0-.37,0-.67-.06-1l.53-.07.08.55h0a1.27,1.27,0,0,1,1-.77,1.46,1.46,0,0,1,1.57.93l.6,1.51-.79.3-.46-1.58a.85.85,0,0,0-1-.68,1,1,0,0,0-.78.77.9.9,0,0,0,0,.29l.18,2-.78.3Z" transform="translate(-5.22 6.2)"/><path class="cls-5" d="M21.76,13.74c0-.37,0-.67-.06-1l.53-.07.08.55h0a1.27,1.27,0,0,1,1-.77,1.46,1.46,0,0,1,1.57.93l.6,1.51-.79.3-.46-1.58a.85.85,0,0,0-1-.68,1,1,0,0,0-.78.77.9.9,0,0,0,0,.29l.18,2-.78.3Z" transform="translate(-5.22 6.2)"/><path class="cls-4" d="M26.82,14.54a7.54,7.54,0,0,0,.9.78c.49.35.74.27.76,0s-.18-.59-.7-.95c-.72-.41-1.06-.71-1.08-1s.54-.7,1.49-.85a1.89,1.89,0,0,1,1,.08l-.23.56a1.6,1.6,0,0,0-.86-.19c-.46,0-.72.21-.72.41s.24.37.77.63a1.65,1.65,0,0,1,1,1.56c-.07.77-.6.89-1.47.14a10.86,10.86,0,0,1-1-1Z" transform="translate(-5.22 6.2)"/><path class="cls-5" d="M26.82,14.54a7.54,7.54,0,0,0,.9.78c.49.35.74.27.76,0s-.18-.59-.7-.95c-.72-.41-1.06-.71-1.08-1s.54-.7,1.49-.85a1.89,1.89,0,0,1,1,.08l-.23.56a1.6,1.6,0,0,0-.86-.19c-.46,0-.72.21-.72.41s.24.37.77.63a1.65,1.65,0,0,1,1,1.56c-.07.77-.6.89-1.47.14a10.86,10.86,0,0,1-1-1Z" transform="translate(-5.22 6.2)"/><path class="cls-4" d="M30.36,15.09a2.13,2.13,0,0,0,.87.35c.5.07.77-.15.81-.47s-.12-.51-.58-.7-.84-.5-.75-.87a1.94,1.94,0,0,1,1.37-1.24,1.06,1.06,0,0,1,.78,0l-.21.56a.93.93,0,0,0-.67-.08.81.81,0,0,0-.65.59c-.06.28.13.38.56.52A1.06,1.06,0,0,1,32.71,15c-.07.72-.66,1.13-1.58.95a2.57,2.57,0,0,1-1-.42Z" transform="translate(-5.22 6.2)"/><path class="cls-5" d="M30.36,15.09a2.13,2.13,0,0,0,.87.35c.5.07.77-.15.81-.47s-.12-.51-.58-.7-.84-.5-.75-.87a1.94,1.94,0,0,1,1.37-1.24,1.06,1.06,0,0,1,.78,0l-.21.56a.93.93,0,0,0-.67-.08.81.81,0,0,0-.65.59c-.06.28.13.38.56.52A1.06,1.06,0,0,1,32.71,15c-.07.72-.66,1.13-1.58.95a2.57,2.57,0,0,1-1-.42Z" transform="translate(-5.22 6.2)"/><path class="cls-4" d="M37.73,13.36a4.85,4.85,0,0,1-1.92,2.15c-.84.53-1.41.1-1.29-1.21s.95-2.19,1.92-2.15S38,12.67,37.73,13.36Zm-2.61.74c-.09.84.23,1.25.79,1a2.68,2.68,0,0,0,1.21-1.52.71.71,0,0,0-.77-1C35.61,12.61,35.21,13.38,35.12,14.1Z" transform="translate(-5.22 6.2)"/><path class="cls-5" d="M37.73,13.36a4.85,4.85,0,0,1-1.92,2.15c-.84.53-1.41.1-1.29-1.21s.95-2.19,1.92-2.15S38,12.67,37.73,13.36Zm-2.61.74c-.09.84.23,1.25.79,1a2.68,2.68,0,0,0,1.21-1.52.71.71,0,0,0-.77-1C35.61,12.61,35.21,13.38,35.12,14.1Z" transform="translate(-5.22 6.2)"/><path class="cls-4" d="M39,12.88c0-.37.06-.68.08-1l.43,0,0,.59h0a1,1,0,0,1,.92-.64c.37,0,.94.31,1,1.41l0,1.93-.58.07V13.36c0-.53-.16-1-.62-1a.84.84,0,0,0-.72.66,1.22,1.22,0,0,0-.06.3l-.16,2.15-.58.07Z" transform="translate(-5.22 6.2)"/><path class="cls-5" d="M39,12.88c0-.37.06-.68.08-1l.43,0,0,.59h0a1,1,0,0,1,.92-.64c.37,0,.94.31,1,1.41l0,1.93-.58.07V13.36c0-.53-.16-1-.62-1a.84.84,0,0,0-.72.66,1.22,1.22,0,0,0-.06.3l-.16,2.15-.58.07Z" transform="translate(-5.22 6.2)"/><path class="cls-6" d="M17,8.23a6.18,6.18,0,0,1-1.7.68c-1.78.45-2.64-.26-2.2-1.76a4.26,4.26,0,0,1,2.92-3,2,2,0,0,1,1,0l-.18.65a1.57,1.57,0,0,0-.89,0A2.75,2.75,0,0,0,14,6.9c-.25,1.1.43,1.58,1.55,1.3a4.39,4.39,0,0,0,1.26-.53Z" transform="translate(-5.22 6.2)"/><path class="cls-7" d="M17,8.23a6.18,6.18,0,0,1-1.7.68c-1.78.45-2.64-.26-2.2-1.76a4.26,4.26,0,0,1,2.92-3,2,2,0,0,1,1,0l-.18.65a1.57,1.57,0,0,0-.89,0A2.75,2.75,0,0,0,14,6.9c-.25,1.1.43,1.58,1.55,1.3a4.39,4.39,0,0,0,1.26-.53Z" transform="translate(-5.22 6.2)"/><path class="cls-6" d="M21.3,8.89l-.06-.61h0a2.11,2.11,0,0,1-1.87.18c-1.21-.33-1.63-.95-1.43-1.39.33-.75,1.53-1.17,3.36-1.17v-.1c0-.38,0-1-.91-.92a4.24,4.24,0,0,0-1.19.43l0-.37a5.24,5.24,0,0,1,1.42-.63C21.77,4,22.09,5,22.11,6l0,1.91a6.85,6.85,0,0,0,.13,1.25Zm-.05-2.41c-1-.08-2.14,0-2.34.67-.12.42.27.72.8.85a1.2,1.2,0,0,0,1.43-.46.59.59,0,0,0,.07-.26Z" transform="translate(-5.22 6.2)"/><path class="cls-7" d="M21.3,8.89l-.06-.61h0a2.11,2.11,0,0,1-1.87.18c-1.21-.33-1.63-.95-1.43-1.39.33-.75,1.53-1.17,3.36-1.17v-.1c0-.38,0-1-.91-.92a4.24,4.24,0,0,0-1.19.43l0-.37a5.24,5.24,0,0,1,1.42-.63C21.77,4,22.09,5,22.11,6l0,1.91a6.85,6.85,0,0,0,.13,1.25Zm-.05-2.41c-1-.08-2.14,0-2.34.67-.12.42.27.72.8.85a1.2,1.2,0,0,0,1.43-.46.59.59,0,0,0,.07-.26Z" transform="translate(-5.22 6.2)"/><path class="cls-6" d="M24.37,2.73a1,1,0,0,1-.65.85c-.37.15-.66,0-.69-.29a.92.92,0,0,1,.64-.85C24.1,2.26,24.37,2.4,24.37,2.73ZM23.83,9.5l-.52-4.89,1-.39.08,5.11Z" transform="translate(-5.22 6.2)"/><path class="cls-7" d="M24.37,2.73a1,1,0,0,1-.65.85c-.37.15-.66,0-.69-.29a.92.92,0,0,1,.64-.85C24.1,2.26,24.37,2.4,24.37,2.73ZM23.83,9.5l-.52-4.89,1-.39.08,5.11Z" transform="translate(-5.22 6.2)"/><path class="cls-6" d="M27.88,3.91l-.24,1,1.59-.32-.12.64-1.58.18L27.16,7.5c-.08.53.06.87.57,1a2.64,2.64,0,0,0,.55.06l-.11.64a2,2,0,0,1-.79-.09,1.51,1.51,0,0,1-.89-.58,1.59,1.59,0,0,1-.27-1.13l.21-1.9-1,.06,0-.35,1-.12.13-.66Z" transform="translate(-5.22 6.2)"/><path class="cls-7" d="M27.88,3.91l-.24,1,1.59-.32-.12.64-1.58.18L27.16,7.5c-.08.53.06.87.57,1a2.64,2.64,0,0,0,.55.06l-.11.64a2,2,0,0,1-.79-.09,1.51,1.51,0,0,1-.89-.58,1.59,1.59,0,0,1-.27-1.13l.21-1.9-1,.06,0-.35,1-.12.13-.66Z" transform="translate(-5.22 6.2)"/><path class="cls-6" d="M29.73,3.19l.89.15-.09,6-.44,0Z" transform="translate(-5.22 6.2)"/><path class="cls-7" d="M29.73,3.19l.89.15-.09,6-.44,0Z" transform="translate(-5.22 6.2)"/><path class="cls-6" d="M32.91,3.55l.83,2.71c.1.31.21.67.28,1h0l.28-.92.77-2.62.76,0-1,3.19a5.39,5.39,0,0,1-1.64,2.7,2.45,2.45,0,0,1-1.15.41l-.18-.7A2.2,2.2,0,0,0,32.7,9a2.14,2.14,0,0,0,.78-.84A.56.56,0,0,0,33.55,8a.66.66,0,0,0-.06-.22L32.13,3.51Z" transform="translate(-5.22 6.2)"/><path class="cls-7" d="M32.91,3.55l.83,2.71c.1.31.21.67.28,1h0l.28-.92.77-2.62.76,0-1,3.19a5.39,5.39,0,0,1-1.64,2.7,2.45,2.45,0,0,1-1.15.41l-.18-.7A2.2,2.2,0,0,0,32.7,9a2.14,2.14,0,0,0,.78-.84A.56.56,0,0,0,33.55,8a.66.66,0,0,0-.06-.22L32.13,3.51Z" transform="translate(-5.22 6.2)"/><path class="cls-6" d="M36.31,6.38c0-.46-.08-.84-.14-1.2L37,5.11l.06.72h0a2.23,2.23,0,0,1,1.79-1c.76-.06,1.82.19,1.36,1.57l-.8,2.4L38.85,9l.56-2.37c.16-.67,0-1.19-.9-1.11a1.49,1.49,0,0,0-1.26.93.88.88,0,0,0,0,.37V9.48l-.62.16Z" transform="translate(-5.22 6.2)"/><path class="cls-7" d="M36.31,6.38c0-.46-.08-.84-.14-1.2L37,5.11l.06.72h0a2.23,2.23,0,0,1,1.79-1c.76-.06,1.82.19,1.36,1.57l-.8,2.4L38.85,9l.56-2.37c.16-.67,0-1.19-.9-1.11a1.49,1.49,0,0,0-1.26.93.88.88,0,0,0,0,.37V9.48l-.62.16Z" transform="translate(-5.22 6.2)"/></svg>